PathFileType	4	(X/Y/Z)	4_coords_data.trc
DataRate	CameraRate	NumFrames	NumMarkers	Units	OrigDataRate	OrigDataStartFrame	OrigNumFrames
30.0	30.0	7	21	m	30.0	48	57
Frame#	Time	THUMB_TIP	THUMB_IP	THUMB_MCP	THUMB_CMC	INDEX_TIP	INDEX_DIP	INDEX_PIP	INDEX_MCP	MIDDLE_TIP	MIDDLE_DIP	MIDDLE_PIP	MIDDLE_MCP	RING_TIP	RING_DIP	RING_PIP	RING_MCP	PINKY_TIP	PINKY_DIP	PINKY_PIP	PINKY_MCP	WRIST
X1	Y1	Z1	X2	Y2	Z2	X3	Y3	Z3	X4	Y4	Z4	X5	Y5	Z5	X6	Y6	Z6	X7	Y7	Z7	X8	Y8	Z8	X9	Y9	Z9	X10	Y10	Z10	X11	Y11	Z11	X12	Y12	Z12	X13	Y13	Z13	X14	Y14	Z14	X15	Y15	Z15	X16	Y16	Z16	X17	Y17	Z17	X18	Y18	Z18	X19	Y19	Z19	X20	Y20	Z20	X21	Y21	Z21
46	1.5666666666666598	0.5367170239721705	-0.03670980720842687	-0.14309506811564177	0.5197701854803164	-0.03564174776705209	-0.12761398565475734	0.49154047816046287	-0.04001247646889827	-0.11525274157293963	0.48000872787551896	-0.03040605481950387	-0.07324529701296023	0.5686935891925265	0.016854586270808714	-0.16121031693176624	0.551815222645063	0.02031083924639676	-0.15562685402258503	0.5286616223582747	0.021654621901464832	-0.14592557189414518	0.494899311614031	0.009719694444949911	-0.12287562669210944	0.588859203809479	0.024194831121566507	-0.14020686398575216	0.5719363721284287	0.02643458165896828	-0.1341569643646799	0.5447781751963802	0.029199742608462254	-0.12394933122455082	0.5050386953451104	0.02200329396940126	-0.10484088311551043	0.5925822447451657	0.022907679069877007	-0.11061387508785059	0.5770899220954682	0.03024346694255109	-0.10503049302992179	0.5542160502304321	0.03696619931131462	-0.09783529779977768	0.5180439753331397	0.02329851685083173	-0.08602444314043622	0.5912188599617619	0.00981848006453967	-0.08104163392600322	0.5772952200404101	0.01754779357497227	-0.07476549148036193	0.5583276776844264	0.024496333324758868	-0.06904166834196912	0.5234081861126776	0.01624782937220648	-0.0653708725269867	0.4622830810018609	-0.023011742144276925	-0.05198982011943104
47	1.599999999999993	0.5366356314003224	-0.03672219443562086	-0.1430446253153631	0.5196297150799342	-0.03581956509076878	-0.12761789298574228	0.49138741575373457	-0.04016997113780263	-0.11527826187313284	0.4799420809280388	-0.030549354064321688	-0.07325043730591119	0.5688740913378219	0.0163376018886644	-0.16176730645848014	0.5520201261372969	0.019668258991674348	-0.15603576388412344	0.5289330741138328	0.020931038139250235	-0.14616645536273687	0.4951848844414741	0.009421107817034535	-0.12288089563538118	0.5893194359797407	0.0241730402618362	-0.14004596476740877	0.5723688957901769	0.026250399942093328	-0.13401572728942962	0.5451814897360019	0.028835815800900333	-0.12383878635010792	0.5053787448595841	0.02166281242423529	-0.10485359623093438	0.5933874400776021	0.022875553081583067	-0.11016164993342892	0.5777479596133999	0.029888592792984614	-0.10457381271173516	0.554788043116308	0.0363607290457878	-0.09742303193116869	0.5184393377486152	0.022862504494750913	-0.0859648302370788	0.5920557558256342	0.00994553558133826	-0.07967474529561197	0.5778986567582535	0.017402292783097906	-0.0735941764052554	0.558746802740497	0.024074304315296002	-0.0681625312772336	0.5237876442905076	0.015673947834943247	-0.0653033876167074	0.462283081001861	-0.023011742144276925	-0.05198982011943104
49	1.633333333333334	0.5365057664770726	-0.03611850165822128	-0.14307607118640736	0.5194508187770277	-0.03549835351125363	-0.1276895779139119	0.4912137369233318	-0.040020823603076794	-0.11539996959402465	0.4798581815021816	-0.030594631044989717	-0.07330379096775197	0.5686923541431389	0.016093148413823477	-0.1623071538625439	0.55186737606758	0.01931552427331462	-0.15643038548382332	0.5288470289509323	0.020513237558098196	-0.1463984896252879	0.49508829390512565	0.00946050786508934	-0.12290761760145019	0.5893499256140814	0.024434268350982724	-0.14009541635016842	0.5723910953332652	0.026358383235169813	-0.1340377057744705	0.5452054958444088	0.028764193866357646	-0.12381201236823319	0.5053765459911893	0.021663904206494444	-0.10485446607827897	0.5939362053226048	0.022830178401015533	-0.10987927778953532	0.5781810638185768	0.029550282711004572	-0.10425649251434288	0.5551664491851569	0.03581949839814691	-0.09710076565096509	0.5185893206052533	0.022713569189407368	-0.08591733512072491	0.5926774591601234	0.009942688518286391	-0.07862157493778443	0.578333435411438	0.017156451943518114	-0.07268772290542486	0.5590548917095969	0.02362986390739108	-0.06746807643442798	0.5240324337790685	0.0152971262560877	-0.06525982492272825	0.4622830810018609	-0.023011742144276925	-0.051989820119430985
50	1.6666666666666674	0.5363851018458637	-0.0353841511144406	-0.14311780438839394	0.5192872443887214	-0.03504936732520647	-0.12777012735928928	0.49106361756519235	-0.039790831142038185	-0.11553225949761287	0.4797793162803544	-0.030612626911529217	-0.07336218584797272	0.5684501080717513	0.015949922036697206	-0.16275562282939948	0.551649592839747	0.0190644233304883	-0.1567520764083114	0.5286854010155716	0.020196053063001762	-0.1465847197699825	0.4948914064866029	0.00957743671539757	-0.12294477445197399	0.5892697447012831	0.024745544581456058	-0.14017631330495123	0.5723066316093778	0.026521235831832635	-0.13408535978234365	0.5451269742218094	0.02875241711369214	-0.12380442575950912	0.5052707990948494	0.021750053171402106	-0.10486768568977117	0.594404872862036	0.022634773560231247	-0.10964053080406816	0.5785494928511434	0.029089365145714252	-0.10398852477303788	0.5554963388887898	0.03521100943470434	-0.09682908746364716	0.5186532086804599	0.022652751453800857	-0.08589314914372542	0.5931953782850875	0.00972067509593555	-0.07770602970913615	0.5787007474559434	0.016736243157482233	-0.07190193788520455	0.5593316993198029	0.023083394901939447	-0.06686550481876713	0.5242180899841827	0.015005306560181952	-0.06523382495794255	0.4622830810018609	-0.023011742144276925	-0.051989820119430985
51	1.7000000000000006	0.5362790042585057	-0.034652234000404625	-0.14315636686163746	0.51914497415972	-0.03457333425234621	-0.12784562594541593	0.49093804103899874	-0.03953897161569819	-0.1156582813002997	0.47970780708959126	-0.03061792996597945	-0.07341864515928209	0.5681882912118292	0.01591172781223016	-0.1631173023484998	0.5514071786275432	0.018917810693084847	-0.15700520564221754	0.5284885559343536	0.01997763314652401	-0.14672788385031044	0.49465294853665764	0.009721519457116079	-0.12298762483700298	0.5891304150512142	0.025090244240353554	-0.14027869370356566	0.572165665891726	0.02671901905896057	-0.13415134692490865	0.544993855357405	0.028773879736634256	-0.12381307773309963	0.5051125040635754	0.021872622514291562	-0.10489223238387613	0.5948069499906028	0.022264095405711948	-0.10943466432468402	0.5788684033470078	0.028494581461344204	-0.10376511633560082	0.5557916449098916	0.03453146325863621	-0.09660975071248146	0.5186640529170681	0.022638398841916207	-0.08589444550944719	0.5936170914934278	0.009236908908738295	-0.07694149846829412	0.5790130061165795	0.016115407980836882	-0.07124878902367449	0.5595905997104214	0.02241929851015856	-0.06636584804631646	0.524360804461805	0.014774137636416995	-0.06522721160074996	0.4622830810018609	-0.023011742144276925	-0.051989820119430985
52	1.7333333333333338	0.5361952955253974	-0.03405593505021198	-0.14318055274258956	0.5190314165185961	-0.034171227103977686	-0.1279035122837106	0.49083834295838535	-0.03932446120155053	-0.11576206337659217	0.47964605577036457	-0.030625197381426994	-0.07346613548171366	0.5679492967905923	0.01598223957085443	-0.16339806318190858	0.5511820686939795	0.018878427240449858	-0.15719547026131125	0.5282985798053373	0.01985597778537851	-0.14683206521202807	0.4944323435427441	0.009842372714679692	-0.12303202636974292	0.5889840435627044	0.025451496848340582	-0.14039281586539687	0.5720190373269411	0.02693161586215498	-0.1342285794061543	0.5448548687530461	0.02880174762565224	-0.1238353074056639	0.504953276888581	0.021982799023794852	-0.10492729778944865	0.5951571689516274	0.021694415326588667	-0.10925143665189563	0.579153685712096	0.027756039875200478	-0.10358176011494014	0.5560673494651367	0.033778104992228775	-0.09644482874224192	0.5186547334745026	0.022628469729685463	-0.08592329690274236	0.5939459178523346	0.008449754096736872	-0.07634080733202098	0.5792784162460368	0.015268371020040195	-0.07073983778358645	0.5598417343065507	0.021622232897352878	-0.06598002125064245	0.5244760472059015	0.014579041727945996	-0.06524172249663301	0.462283081001861	-0.023011742144276925	-0.051989820119430985
53	1.766666666666667	0.5361435132342038	-0.033728512314531334	-0.14318072729250386	0.5189551462854117	-0.033944237174368785	-0.12793233378962893	0.4907661615336215	-0.039206858914273335	-0.11582836951811781	0.4795965314527474	-0.03064915439192173	-0.07349758807996631	0.5677761768164791	0.01616506747405333	-0.16360446308362275	0.5510169383702315	0.01894897278335994	-0.1573292899441282	0.5281584675831892	0.01982899108322911	-0.14690212762306343	0.4942897362590647	0.009889667572701932	-0.12307451799374147	0.5888833958073598	0.025812397179742708	-0.14050926928928542	0.5719183287595637	0.027138945216421906	-0.13431033628673023	0.544759618832056	0.02880916915140963	-0.12386886239266287	0.5048454694267644	0.022031767999024954	-0.10497242273140062	0.5954722873376165	0.020903426563933514	-0.10908109144351702	0.5794231989186998	0.0268651193039966	-0.10343441272103965	0.5563409423265891	0.03294915806089338	-0.09633695669648112	0.5186582860703512	0.02258057404287339	-0.08598173014485622	0.5941802315001057	0.007319381691880178	-0.0759158466415153	0.5795010563245004	0.01417091697067252	-0.07038608349221492	0.5600925239619482	0.020677594411472544	-0.06571874600568789	0.52457883822663	0.014395221142291637	-0.06527901586145979	0.462283081001861	-0.023011742144276925	-0.05198982011943093
